<svg id="Icons" enable-background="new 0 0 512 512" height="512" viewBox="0 0 512 512" width="512" xmlns="http://www.w3.org/2000/svg"><g><circle cx="256" cy="256" fill="#53b976" r="256"/><g id="Cat"><g><g><path d="m403.024 219.828.023.009s13.368-41.083 13.368-81.179c0-22.153-9.798-41.505-18.568-54.388-6.265-9.203-19.468-10.159-26.997-1.957l-83.911 91.417h-61.878l-83.911-91.417c-7.528-8.202-20.732-7.246-26.997 1.957-8.77 12.883-18.568 32.235-18.568 54.388 0 40.097 13.368 81.179 13.368 81.179l.023-.009c-2.439 4.633-4.494 9.526-6.086 14.662-4.97 16.02-7.3 32.07-7.3 47.76 0 85.36 69.18 160.02 160.41 160.02 45.62 0 85.72-18.67 114.42-48 39.25-40.12 57.17-100.2 38.69-159.78-1.592-5.136-3.647-10.029-6.086-14.662z" fill="#ea792e"/><path d="m225.061 173.73-83.911-91.417c-7.528-8.202-20.732-7.246-26.997 1.957-8.77 12.883-18.568 32.235-18.568 54.388 0 40.097 13.368 81.179 13.368 81.179l.023-.009c-2.439 4.633-4.494 9.526-6.086 14.662-4.97 16.02-7.3 32.07-7.3 47.76 0 85.36 69.18 160.02 160.41 160.02v-268.54z" fill="#dd5e26"/></g><g><path d="m111.14 158.17c0 14.19 2.21 28.54 4.56 39.83 2.42 11.6 14.69 18.23 25.7 13.85l9.32-3.7 33.07-13.13c12.41-4.93 16.03-20.76 7-30.6l-30.45-33.17-.02-.02-14.56-15.87c-5.7-6.2-15.72-5.54-20.46 1.42-6.68 9.78-14.16 24.52-14.16 41.39z" fill="#bf5e39"/><path d="m133.73 195.39 16.99 12.76 33.07-13.13c12.41-4.93 16.03-20.76 7-30.6l-30.45-33.17-.02-.02-16.38-3.49c-3.54-.76-6.19 3.19-4.16 6.18l12.67 13.72c3.79 4.1.29 10.68-5.22 9.83l-12.01-1.85c-3.76 0-5.46 4.7-2.56 7.11l19.87 14.52c4.54 3.31 2.3 10.49-3.31 10.65l-14.02.38c-3.3.79-4.19 5.07-1.47 7.11z" fill="#ea792e"/></g><g><path d="m400.86 158.17c0 14.19-2.21 28.54-4.56 39.83-2.42 11.6-14.69 18.23-25.7 13.85l-9.32-3.7-33.07-13.13c-12.41-4.93-16.03-20.76-7-30.6l30.45-33.17.02-.02 14.56-15.87c5.7-6.2 15.72-5.54 20.46 1.42 6.68 9.78 14.16 24.52 14.16 41.39z" fill="#dd5e26"/><path d="m378.27 195.39-16.99 12.76-33.07-13.13c-12.41-4.93-16.03-20.76-7-30.6l30.45-33.17.02-.02 16.38-3.49c3.54-.76 6.19 3.19 4.16 6.18l-12.67 13.72c-3.79 4.1-.29 10.68 5.22 9.83l12.01-1.85c3.76 0 5.46 4.7 2.56 7.11l-19.87 14.52c-4.54 3.31-2.3 10.49 3.31 10.65l14.02.38c3.3.79 4.19 5.07 1.47 7.11z" fill="#f39e22"/></g><path d="m381.934 82.684-4.019 2.946c-2.896 2.123-3.311 6.48-.928 9.732l20.506 27.976c2.384 3.252 6.664 4.167 9.56 2.044 2.574-1.886 3.23-5.591 1.548-8.745l-16.488-30.922c-2.109-3.956-6.95-5.398-10.179-3.031z" fill="#f39e22"/><path d="m130.066 82.684 4.019 2.946c2.896 2.123 3.311 6.48.928 9.732l-20.506 27.976c-2.384 3.252-6.664 4.167-9.56 2.044-2.574-1.886-3.23-5.591-1.548-8.745l16.488-30.922c2.109-3.956 6.95-5.398 10.179-3.031z" fill="#ea792e"/><path d="m271.47 277.199c-8.544 0-15.47-6.926-15.47-15.47v-58.533c0-8.544 6.926-15.47 15.47-15.47 8.544 0 15.47 6.926 15.47 15.47v58.533c-.001 8.544-6.927 15.47-15.47 15.47z" fill="#f39e22"/><path d="m240.53 277.199c-8.544 0-15.47-6.926-15.47-15.47v-58.533c0-8.544 6.926-15.47 15.47-15.47 8.544 0 15.47 6.926 15.47 15.47v58.533c0 8.544-6.926 15.47-15.47 15.47z" fill="#ea792e"/><path d="m331.263 233.234h-10.319c-8.591 0-15.556 6.965-15.556 15.556v13.833c0 8.591 6.965 15.556 15.556 15.556h10.319c8.591 0 15.556-6.965 15.556-15.556v-13.833c0-8.591-6.965-15.556-15.556-15.556z" fill="#dd5e26"/><path d="m191.056 233.234h-10.319c-8.591 0-15.556 6.965-15.556 15.556v13.833c0 8.591 6.965 15.556 15.556 15.556h10.319c8.591 0 15.556-6.965 15.556-15.556v-13.833c0-8.591-6.965-15.556-15.556-15.556z" fill="#bf5e39"/></g><g><g><g><path d="m362.562 308c0-13.844-25.828-25.067-39.672-25.067s-25.067 11.223-25.067 25.067 11.223 25.067 25.067 25.067 39.672-11.223 39.672-25.067z" fill="#fbcb74"/></g><g><path d="m335.534 296.92v22.16c0 2.6-1.06 4.96-2.76 6.67-5.778 5.89-16.163 1.689-16.1-6.67v-22.16c.457-12.454 18.356-12.552 18.86 0z" fill="#3f5d77"/></g><g><path d="m335.534 296.92v22.16c-.005 2.654-1.096 5.069-2.88 6.78-4.26-.91-7.45-4.69-7.45-9.22v-22.16c0-2.66 1.11-5.07 2.89-6.78 4.25.91 7.44 4.69 7.44 9.22z" fill="#2e3140"/></g><g><path d="m348.069 301.699c0-4.936-4.002-8.938-8.938-8.938-11.851.458-11.848 17.421 0 17.877 4.936 0 8.938-4.002 8.938-8.939z" fill="#fff"/></g></g><g><g><path d="m149.438 308c0-13.844 25.828-25.067 39.672-25.067s25.067 11.223 25.067 25.067-11.223 25.067-25.067 25.067c-13.843 0-39.672-11.223-39.672-25.067z" fill="#fbcb74"/></g><g><path d="m195.326 296.92v22.16c0 2.6-1.06 4.96-2.76 6.67-5.778 5.89-16.163 1.689-16.1-6.67v-22.16c.458-12.454 18.357-12.552 18.86 0z" fill="#3f5d77"/></g><g><path d="m195.326 296.92v22.16c-.005 2.654-1.096 5.069-2.88 6.78-4.26-.91-7.45-4.69-7.45-9.22v-22.16c0-2.66 1.11-5.07 2.89-6.78 4.25.91 7.44 4.69 7.44 9.22z" fill="#2e3140"/></g><g><path d="m189.067 301.699c0-4.936 4.002-8.938 8.938-8.938 11.851.458 11.848 17.421 0 17.877-4.936 0-8.938-4.002-8.938-8.939z" fill="#fff"/></g></g></g><g><g><g><path d="m326.05 382.31c0 11.5-2.77 22.35-7.68 31.92-11.61 22.64-35.18 38.13-62.37 38.13-38.69 0-70.05-31.36-70.05-70.05 0-23.19 11.26-43.74 28.62-56.48 11.6-8.53 25.93-13.57 41.43-13.57 38.69 0 70.05 31.36 70.05 70.05z" fill="#ea792e"/></g><g><path d="m326.05 382.31c0 11.5-2.77 22.35-7.68 31.92-11.6 8.53-25.93 13.57-41.43 13.57-38.69 0-70.05-31.36-70.05-70.05 0-11.5 2.77-22.35 7.68-31.92 11.6-8.53 25.93-13.57 41.43-13.57 38.69 0 70.05 31.36 70.05 70.05z" fill="#f39e22"/></g><g><path d="m268.486 369.707c-6.895 0-12.484-5.589-12.484-12.484v-28.355c0-6.895 5.589-12.484 12.484-12.484 6.895 0 12.484 5.589 12.484 12.484v28.355c0 6.895-5.589 12.484-12.484 12.484z" fill="#f9c744"/></g><g><ellipse cx="256" cy="426.16" fill="#f39e22" rx="32.371" ry="19.748"/></g><g><circle cx="297.717" cy="390.56" fill="#f9c744" r="17.295"/></g><g><circle cx="214.283" cy="390.56" fill="#f9c744" r="17.295"/></g></g><path d="m331.171 377.31c-2.761 0-5 2.239-5 5 0 13.986-3.332 24.249-9.903 30.504-7.297 6.946-16.165 6.595-16.508 6.578l-.314-.01c-8.989 0-13.171-3.754-18.467-8.508-4.973-4.464-10.528-9.43-20.147-10.731v-5.771c1.342-.533 2.602-1.279 3.717-2.242 2.878-2.487 4.529-6.094 4.529-9.896v-.227c0-.846.688-1.534 1.533-1.534h2.284c2.761 0 5-2.239 5-5v-10.451c0-2.761-2.239-5-5-5h-33.785c-2.761 0-5 2.239-5 5v10.451c0 2.761 2.239 5 5 5h2.284c.845 0 1.533.688 1.533 1.534 0 5.401 3.233 10.177 7.905 12.227v5.909c-9.619 1.301-15.174 6.267-20.147 10.731-5.296 4.753-9.479 8.508-18.467 8.508l-.218.005c-.375.011-9.128.249-16.35-6.713-6.517-6.284-9.822-16.5-9.822-30.364 0-2.761-2.239-5-5-5s-5 2.239-5 5c0 16.798 4.391 29.491 13.051 37.726 9.884 9.398 21.815 9.394 23.424 9.347 12.761-.026 19.295-5.891 25.061-11.066 5.296-4.753 9.479-8.508 18.467-8.508s13.171 3.754 18.467 8.508c5.761 5.172 12.29 11.031 25.033 11.066.153.006.385.012.687.012 3.146 0 13.912-.667 22.977-9.179 8.743-8.209 13.175-20.962 13.175-37.905.001-2.762-2.237-5.001-4.999-5.001z" fill="#bf5e39"/><g><g><path d="m247.927 378.008c0 4.033 2.862 7.627 6.853 8.212 5.002.733 9.297-3.124 9.297-7.985v-.227c0-3.608 2.925-6.534 6.534-6.534h2.284c4.46 0 8.075-3.615 8.075-8.075 0-4.46-3.615-8.075-8.075-8.075h-33.785c-4.46 0-8.075 3.615-8.075 8.075 0 4.46 3.615 8.075 8.075 8.075h2.284c3.608 0 6.533 2.925 6.533 6.534z" fill="#ed72ab"/></g><g><path d="m269.062 366.385h-19.038c-3.054 0-5.53-2.476-5.53-5.53 0-3.054 2.476-5.53 5.53-5.53h19.038c3.054 0 5.53 2.476 5.53 5.53 0 3.054-2.476 5.53-5.53 5.53z" fill="#f0a6b3"/></g></g></g><g><g><path d="m391.78 418.34c-.22-.46-5.45-11.35-20.15-18.37-7.08-3.38-14.99-5.3-23.71-5.76-14.88-.78-32.11 2.69-51.5 10.39-1.79.72-2.67 2.75-1.96 4.55.72 1.79 2.75 2.67 4.55 1.96 18.92-7.52 35.92-10.78 50.2-9.72 7 .52 13.35 2.08 18.95 4.68 12.66 5.88 17.25 15.16 17.28 15.24.6 1.27 1.86 2.02 3.17 2.02.5 0 1.01-.11 1.49-.33 1.75-.83 2.5-2.91 1.68-4.66zm39.69-36.39c-.49-.39-12.26-9.79-34.99-13.75-11.84-2.06-28.12-2.81-48.41 1.15-15.13 2.94-32.49 8.5-51.9 18.07-1.73.86-2.45 2.95-1.59 4.69.61 1.23 1.85 1.95 3.14 1.95.52 0 1.05-.12 1.54-.36 17.94-8.84 33.99-14.13 48.04-17.06 20.03-4.19 35.99-3.58 47.49-1.63 21.11 3.58 32.16 12.3 32.27 12.38 1.5 1.22 3.7.99 4.92-.51s.99-3.71-.51-4.93zm40.8-39.5c-.72-.31-18.02-7.45-48.53-7.59-17.02-.05-40.35 2.15-68.43 10.56-17.94 5.38-37.83 13.29-59.25 24.76-1.7.91-2.34 3.03-1.43 4.74.63 1.18 1.84 1.85 3.09 1.85.56 0 1.12-.14 1.65-.42 18.85-10.09 36.46-17.37 52.54-22.55 29.27-9.43 53.48-11.94 70.94-11.94h.41c29.26.06 46.13 6.97 46.29 7.04 1.78.75 3.84-.09 4.59-1.87s-.09-3.83-1.87-4.58z" fill="#ebd9ea"/><g fill="#fff"><path d="m391.78 418.34c.82 1.75.07 3.83-1.68 4.66-.48.22-.99.33-1.49.33-1.31 0-2.57-.75-3.17-2.02-.03-.08-4.62-9.36-17.28-15.24-5.6-2.6-11.95-4.16-18.95-4.68-.53-2.36-.97-4.75-1.29-7.18 8.72.46 16.63 2.38 23.71 5.76 14.7 7.02 19.93 17.91 20.15 18.37z"/><path d="m431.98 386.88c-1.22 1.5-3.42 1.73-4.92.51-.11-.08-11.16-8.8-32.27-12.38-11.5-1.95-27.46-2.56-47.49 1.63.15-2.46.41-4.89.77-7.29 20.29-3.96 36.57-3.21 48.41-1.15 22.73 3.96 34.5 13.36 34.99 13.75 1.5 1.22 1.73 3.43.51 4.93z"/><path d="m474.14 347.03c-.75 1.78-2.81 2.62-4.59 1.87-.16-.07-17.03-6.98-46.29-7.04h-.41c-17.46 0-41.67 2.51-70.94 11.94.98-2.87 2.12-5.66 3.4-8.38 28.08-8.41 51.41-10.61 68.43-10.56 30.51.14 47.81 7.28 48.53 7.59 1.78.75 2.62 2.8 1.87 4.58z"/></g></g><g><path d="m121.903 423c.48.22.99.33 1.49.33 1.31 0 2.57-.75 3.17-2.02.03-.08 4.62-9.36 17.28-15.24 5.6-2.6 11.95-4.16 18.95-4.68 14.28-1.06 31.28 2.2 50.2 9.72 1.8.71 3.83-.17 4.55-1.96.71-1.8-.17-3.83-1.96-4.55-19.39-7.7-36.62-11.17-51.5-10.39-8.72.46-16.63 2.38-23.71 5.76-14.7 7.02-19.93 17.91-20.15 18.37-.82 1.75-.07 3.83 1.68 4.66zm-41.88-36.12c1.22 1.5 3.42 1.73 4.92.51.11-.08 11.16-8.8 32.27-12.38 11.5-1.95 27.46-2.56 47.49 1.63 14.05 2.93 30.1 8.22 48.04 17.06.49.24 1.02.36 1.54.36 1.29 0 2.53-.72 3.14-1.95.86-1.74.14-3.83-1.59-4.69-19.41-9.57-36.77-15.13-51.9-18.07-20.29-3.96-36.57-3.21-48.41-1.15-22.73 3.96-34.5 13.36-34.99 13.75-1.5 1.22-1.73 3.43-.51 4.93zm-42.16-39.85c.75 1.78 2.81 2.62 4.59 1.87.16-.07 17.03-6.98 46.29-7.04h.41c17.46 0 41.67 2.51 70.94 11.94 16.08 5.18 33.69 12.46 52.54 22.55.53.28 1.09.42 1.65.42 1.25 0 2.46-.67 3.09-1.85.91-1.71.27-3.83-1.43-4.74-21.42-11.47-41.31-19.38-59.25-24.76-28.08-8.41-51.41-10.61-68.43-10.56-30.51.14-47.81 7.28-48.53 7.59-1.78.75-2.62 2.8-1.87 4.58z" fill="#ebd9ea"/><g fill="#fff"><path d="m120.223 418.34c-.82 1.75-.07 3.83 1.68 4.66.48.22.99.33 1.49.33 1.31 0 2.57-.75 3.17-2.02.03-.08 4.62-9.36 17.28-15.24 5.6-2.6 11.95-4.16 18.95-4.68.53-2.36.97-4.75 1.29-7.18-8.72.46-16.63 2.38-23.71 5.76-14.7 7.02-19.93 17.91-20.15 18.37z"/><path d="m80.023 386.88c1.22 1.5 3.42 1.73 4.92.51.11-.08 11.16-8.8 32.27-12.38 11.5-1.95 27.46-2.56 47.49 1.63-.15-2.46-.41-4.89-.77-7.29-20.29-3.96-36.57-3.21-48.41-1.15-22.73 3.96-34.5 13.36-34.99 13.75-1.5 1.22-1.73 3.43-.51 4.93z"/><path d="m37.863 347.03c.75 1.78 2.81 2.62 4.59 1.87.16-.07 17.03-6.98 46.29-7.04h.41c17.46 0 41.67 2.51 70.94 11.94-.98-2.87-2.12-5.66-3.4-8.38-28.08-8.41-51.41-10.61-68.43-10.56-30.51.14-47.81 7.28-48.53 7.59-1.78.75-2.62 2.8-1.87 4.58z"/></g></g></g></g></g></svg>