<svg height="512" viewBox="0 0 128 128" width="512" xmlns="http://www.w3.org/2000/svg"><g id="Circle_Grid" data-name="Circle Grid"><circle cx="64" cy="64" fill="#f6c863" r="64"/></g><g id="icon"><path d="m93.517 56.119s6.3 12.378 3.55 25.036c-1.575 7.239-8.429 11.585-15.491 14.175a51.139 51.139 0 0 1 -35.151 0c-7.063-2.591-13.917-6.937-15.489-14.176-2.752-12.658 3.55-25.036 3.55-25.036-2.7-7.622-7.237-22.6-2.636-25.784 6.241-4.309 17.98 10.644 17.98 10.644 5.96-3.946 14.17-3.12 14.17-3.12s8.206-.826 14.172 3.12c0 0 11.739-14.953 17.975-10.644 4.607 3.187.067 18.166-2.63 25.785z" fill="#575b6d"/><path d="m83.133 57.07s.076 5.914-3.013 7.7-8.172-1.239-8.172-1.239-.076-5.914 3.013-7.7 8.172 1.239 8.172 1.239z" fill="#eeefee"/><path d="m79.923 60.3a4.773 4.773 0 0 1 -2.383 3.853 4.773 4.773 0 0 1 -2.383-3.853 4.459 4.459 0 0 1 2.383-3.853 4.417 4.417 0 0 1 2.383 3.853z" fill="#414451"/><path d="m89.022 51.737c-1.846-3.9-6.788-6.085-8.337-6.689a.38.38 0 0 1 -.164-.587c1.372-1.817 7.056-9.034 11.192-9.6a.717.717 0 0 1 .7.347c.691 1.13 2 5.127-2.69 16.5a.385.385 0 0 1 -.701.029z" fill="#414451"/><path d="m44.867 57.07s-.076 5.914 3.013 7.7 8.172-1.239 8.172-1.239.076-5.914-3.013-7.7-8.172 1.239-8.172 1.239z" fill="#eeefee"/><path d="m48.077 60.3a4.773 4.773 0 0 0 2.383 3.853 4.773 4.773 0 0 0 2.383-3.853 4.459 4.459 0 0 0 -2.383-3.853 4.417 4.417 0 0 0 -2.383 3.853z" fill="#414451"/><path d="m38.977 51.737c1.846-3.9 6.788-6.085 8.337-6.689a.38.38 0 0 0 .164-.587c-1.372-1.817-7.056-9.034-11.192-9.6a.717.717 0 0 0 -.7.347c-.691 1.13-2 5.127 2.69 16.5a.385.385 0 0 0 .701.029z" fill="#414451"/><path d="m97.067 81.154c-1.574 7.237-8.426 11.585-15.493 14.177a51.183 51.183 0 0 1 -35.151 0c-7.061-2.592-13.913-6.94-15.487-14.177l8.943-2.323a26.686 26.686 0 0 0 18.013-15.772l.066-.171a12.306 12.306 0 0 1 3.473-4.772 3.994 3.994 0 0 1 5.14 0 12.292 12.292 0 0 1 3.467 4.772l.072.171a26.675 26.675 0 0 0 18.013 15.773z" fill="#eeefee"/><g fill="#fff"><path d="m105.872 77.611a.126.126 0 0 1 -.071-.022c-11-7.4-27.688-.427-27.855-.356a.128.128 0 1 1 -.1-.235c.169-.071 16.977-7.094 28.1.379a.128.128 0 0 1 -.071.233z"/><path d="m105.322 84.674a.127.127 0 0 1 -.1-.051c-8.105-10.808-25.37-5.694-25.543-5.641a.128.128 0 0 1 -.075-.244c.175-.053 17.608-5.221 25.823 5.732a.128.128 0 0 1 -.1.2z"/><path d="m102.937 88.527a.128.128 0 0 1 -.1-.05c-8.11-10.632-25.287-6.419-25.46-6.377a.131.131 0 0 1 -.155-.092.128.128 0 0 1 .092-.155c.175-.043 17.513-4.3 25.725 6.467a.128.128 0 0 1 -.1.2z"/><path d="m22.128 77.611a.128.128 0 0 1 -.071-.233c11.12-7.473 27.93-.45 28.1-.379a.128.128 0 0 1 .068.168.132.132 0 0 1 -.168.068c-.168-.071-16.852-7.04-27.855.355a.126.126 0 0 1 -.074.021z"/><path d="m22.678 84.674a.128.128 0 0 1 -.1-.2c8.212-10.956 25.646-5.789 25.822-5.737a.128.128 0 1 1 -.075.244c-.173-.053-17.437-5.166-25.543 5.641a.127.127 0 0 1 -.104.052z"/><path d="m25.063 88.527a.128.128 0 0 1 -.1-.2c8.213-10.766 25.551-6.51 25.725-6.467a.128.128 0 0 1 -.063.247c-.173-.043-17.35-4.256-25.459 6.375a.128.128 0 0 1 -.103.045z"/></g><path d="m63.577 72.3v4.268s-8.8 4.861-7.639 5.941 8.062-5.15 8.062-5.15c0 .289 6.906 6.23 8.063 5.15s-7.639-5.941-7.639-5.941v-4.268z" fill="#414451"/><path d="m68.454 71.058c-.537 1.095-1.933 2.187-4.454 2.15-2.518.037-3.914-1.056-4.451-2.15a1.5 1.5 0 0 1 1.366-2.148h6.173a1.5 1.5 0 0 1 1.366 2.148z" fill="#ef5261"/></g></svg>